<svg width="20" height="20" viewBox="0 0 20 20" fill="none" xmlns="http://www.w3.org/2000/svg">
<path fill-rule="evenodd" clip-rule="evenodd" d="M12.3558 0.00792976C12.1328 -0.0240483 11.9087 0.0419064 11.7304 0.183809C11.5472 0.32771 11.4326 0.535567 11.4077 0.768407C11.355 1.23908 11.6946 1.66479 12.1646 1.71776C15.4063 2.07951 17.9259 4.60477 18.2904 7.85654C18.3392 8.29224 18.7047 8.62101 19.1409 8.62101C19.1738 8.62101 19.2057 8.61901 19.2385 8.61502C19.4666 8.59004 19.6697 8.47711 19.8132 8.29724C19.9556 8.11736 20.0203 7.89351 19.9944 7.66467C19.5403 3.60746 16.4002 0.45862 12.3558 0.00792976ZM12.4181 3.48993C11.942 3.40199 11.5048 3.70578 11.4142 4.17046C11.3236 4.63514 11.6283 5.08883 12.0914 5.17976C13.4857 5.45158 14.5623 6.53084 14.8351 7.92987V7.93087C14.9128 8.3336 15.2674 8.6264 15.6757 8.6264C15.7304 8.6264 15.7852 8.6214 15.841 8.61141C16.3041 8.51847 16.6088 8.06578 16.5182 7.6001C16.1109 5.51054 14.5025 3.89665 12.4181 3.48993ZM14.0001 13.0906C14.4515 12.8302 14.9615 12.5362 15.6047 12.673C16.1873 12.796 18.1731 14.4079 18.7169 14.9665C19.0734 15.3322 19.2716 15.71 19.3025 16.0877C19.3562 17.5697 17.3425 19.2615 16.976 19.4724C16.489 19.8231 15.9224 20 15.286 20C14.6357 20 13.9106 19.8151 13.1199 19.4464C8.82956 17.6556 2.27553 11.231 0.542661 6.97396C-0.17638 5.38905 -0.18136 4.08195 0.53071 3.09962C0.814542 2.63894 2.43288 0.713262 3.88192 0.77422C4.26733 0.807198 4.64179 1.00506 5.00928 1.36481C5.56499 1.90944 7.13653 3.90107 7.25803 4.48567C7.39247 5.13522 7.09769 5.65187 6.83576 6.10556C6.7799 6.20309 6.70463 6.31883 6.62217 6.44562C6.3092 6.92685 5.89264 7.56737 6.04004 7.97627C7.09669 10.5705 9.53764 12.8339 12.133 13.8972C12.5343 14.0431 13.1745 13.6235 13.6542 13.3092C13.7791 13.2273 13.8932 13.1525 13.9893 13.0968L14.0001 13.0906Z" fill="white"/>
</svg>
