<svg width="20" height="20" viewBox="0 0 20 20" fill="none" xmlns="http://www.w3.org/2000/svg">
<path fill-rule="evenodd" clip-rule="evenodd" d="M11.9632 1.67336C11.7773 1.64671 11.5906 1.70167 11.442 1.81992C11.2893 1.93984 11.1939 2.11305 11.1731 2.30709C11.1292 2.69932 11.4122 3.05407 11.8039 3.09821C14.5053 3.39967 16.605 5.50406 16.9087 8.21386C16.9494 8.57695 17.254 8.85093 17.6175 8.85093C17.6448 8.85093 17.6714 8.84926 17.6988 8.84593C17.8888 8.82511 18.0581 8.73101 18.1777 8.58111C18.2963 8.43121 18.3503 8.24468 18.3287 8.05397C17.9503 4.67296 15.3335 2.04893 11.9632 1.67336ZM12.0151 4.57502C11.6184 4.50174 11.2541 4.7549 11.1785 5.14213C11.103 5.52936 11.357 5.90744 11.7429 5.98322C12.9048 6.20973 13.8019 7.10911 14.0293 8.27498V8.27581C14.094 8.61141 14.3895 8.85541 14.7297 8.85541C14.7754 8.85541 14.821 8.85125 14.8675 8.84292C15.2534 8.76547 15.5074 8.38823 15.4319 8.00017C15.0924 6.25886 13.7521 4.91395 12.0151 4.57502ZM13.3334 12.5756C13.7096 12.3586 14.1346 12.1136 14.6706 12.2276C15.1561 12.3301 16.8109 13.6733 17.2641 14.1388C17.5612 14.4436 17.7263 14.7584 17.7521 15.0732C17.7969 16.3082 16.1188 17.718 15.8134 17.8937C15.4076 18.186 14.9353 18.3334 14.405 18.3334C13.8631 18.3334 13.2589 18.1794 12.5999 17.8721C9.02465 16.3798 3.56296 11.0259 2.1189 7.47838C1.5197 6.15762 1.51555 5.06837 2.10895 4.24977C2.34547 3.86586 3.69409 2.26113 4.90162 2.31193C5.2228 2.33941 5.53485 2.5043 5.84109 2.80409C6.30418 3.25795 7.61379 4.91764 7.71504 5.40481C7.82708 5.9461 7.58143 6.37664 7.36316 6.75471C7.3166 6.83599 7.25388 6.93244 7.18516 7.0381C6.92435 7.43912 6.57722 7.97289 6.70005 8.31364C7.5806 10.4755 9.61472 12.3617 11.7775 13.2478C12.112 13.3693 12.6454 13.0197 13.0452 12.7577C13.1493 12.6895 13.2444 12.6272 13.3245 12.5807L13.3334 12.5756Z" fill="#595959"/>
</svg>
