<svg width="18" height="18" viewBox="0 0 18 18" fill="none" xmlns="http://www.w3.org/2000/svg">
<path fill-rule="evenodd" clip-rule="evenodd" d="M8.99988 1.50037C4.85747 1.50037 1.49988 4.85796 1.49988 9.00037C1.49988 13.1428 4.85747 16.5004 8.99988 16.5004C13.1423 16.5004 16.4999 13.1428 16.4999 9.00037C16.4999 4.85796 13.1423 1.50037 8.99988 1.50037ZM8.99988 2.62537C12.521 2.62537 15.3749 5.47928 15.3749 9.00037C15.3749 12.5215 12.521 15.3754 8.99988 15.3754C5.47879 15.3754 2.62488 12.5215 2.62488 9.00037C2.62488 5.47928 5.47879 2.62537 8.99988 2.62537ZM9.30345 5.8088C9.2662 5.53425 9.03086 5.32263 8.74609 5.32263C8.43543 5.32263 8.18359 5.57447 8.18359 5.88513V9.52038L8.18985 9.60419C8.2147 9.76923 8.31209 9.91647 8.45791 10.0035L11.2854 11.6902L11.3536 11.7249C11.6085 11.8336 11.9108 11.7399 12.0567 11.4953L12.0914 11.4271C12.2 11.1723 12.1063 10.87 11.8618 10.7241L9.30829 9.20021L9.30859 5.88513L9.30345 5.8088Z" fill="#606870"/>
</svg>
