<svg width="18" height="18" viewBox="0 0 18 18" fill="none" xmlns="http://www.w3.org/2000/svg">
<path d="M14.1389 10.9832C13.5791 10.8628 13.1363 11.1227 12.7442 11.3497C12.3427 11.5836 11.5791 12.203 11.1415 12.0444C8.90074 11.1218 6.79328 9.1606 5.88099 6.91088C5.7202 6.46388 6.33671 5.6955 6.56886 5.28921C6.79414 4.89593 7.04865 4.44893 6.93257 3.88498C6.82767 3.37821 5.47085 1.65173 4.99106 1.17961C4.67464 0.867747 4.35049 0.696224 4.01773 0.668504C2.76667 0.614794 1.36943 2.28411 1.12438 2.68346C0.510458 3.53501 0.513897 4.6681 1.1347 6.04201C2.63081 9.73234 8.28939 15.3016 11.9936 16.854C12.6771 17.1736 13.3022 17.3339 13.8637 17.3339C14.4131 17.3339 14.9024 17.1806 15.3229 16.8765C15.6401 16.6937 17.3779 15.2271 17.3323 13.9424C17.3048 13.615 17.1337 13.2875 16.8258 12.9705C16.3572 12.4862 14.6419 11.0889 14.1389 10.9832Z" fill="#595959"/>
</svg>
